<svg width="26" height="23" viewBox="0 0 26 23" fill="none" xmlns="http://www.w3.org/2000/svg">
<g clip-path="url(#clip0_1_85)">
<g clip-path="url(#clip1_1_85)">
<g clip-path="url(#clip2_1_85)">
<path fill-rule="evenodd" clip-rule="evenodd" d="M17.1878 4.69237C18.2933 5.28458 19.2576 6.10487 20.0175 7.09022C20.1116 6.5399 20.1719 5.978 20.1962 5.40701C19.3914 4.59117 18.4479 3.91203 17.4039 3.40749L17.4117 3.36124L17.1885 2.03021L16.2386 1.8948L16.0777 0.935495L13.0206 0.499634L9.96353 0.935495L9.80264 1.8948L8.85287 2.03021L8.62957 3.36124L8.63737 3.4073C6.17372 4.59812 4.2699 6.76084 3.42694 9.3965C3.23782 9.49789 3.0579 9.60252 2.88773 9.71003L2.69815 7.617C3.01684 7.4853 3.24079 7.17215 3.24079 6.80672C3.24079 6.32248 2.84742 5.93008 2.36217 5.93008C1.87684 5.93008 1.48346 6.32248 1.48346 6.80672C1.48346 7.17215 1.70759 7.4853 2.02611 7.617L1.7546 10.6164C1.22049 11.1788 0.927246 11.7912 0.927246 12.4317C0.927246 13.5698 1.8525 14.6187 3.40966 15.4578C3.69065 16.3536 4.09387 17.1954 4.60002 17.9637C5.1514 18.0575 5.7142 18.1175 6.28639 18.1416C4.98318 16.6075 4.19716 14.6222 4.19716 12.4536C4.19716 9.09548 6.08194 6.17688 8.85333 4.69237L13.0206 5.28644L17.1878 4.69237Z" fill="#0095FF"/>
<path fill-rule="evenodd" clip-rule="evenodd" d="M19.5663 8.92599C17.7872 8.27446 15.5068 7.88318 13.0205 7.88318C9.92444 7.88318 7.14776 8.48994 5.26066 9.45036C4.89839 10.3816 4.69971 11.3942 4.69971 12.4533C4.69971 13.5123 4.89839 14.525 5.26066 15.4562C6.99477 16.3388 9.48016 16.9227 12.2743 17.0116C13.7748 16.3463 15.1295 15.4131 16.2774 14.2728C15.7082 13.868 15.337 13.2039 15.337 12.4533C15.337 11.22 16.339 10.2204 17.575 10.2204C18.061 10.2204 18.5108 10.3749 18.8777 10.6373C19.1451 10.087 19.3757 9.51551 19.5663 8.92599ZM8.46592 10.2204C9.70198 10.2204 10.7039 11.22 10.7039 12.4533C10.7039 13.6865 9.70198 14.6862 8.46592 14.6862C7.22996 14.6862 6.22789 13.6865 6.22789 12.4533C6.22789 11.22 7.22996 10.2204 8.46592 10.2204Z" fill="#0095FF"/>
<path fill-rule="evenodd" clip-rule="evenodd" d="M16.4071 18.5055L13.0197 18.0227L9.63232 18.5055L9.3075 20.4417C8.13888 19.9001 7.10894 19.1109 6.28549 18.1416C5.71331 18.1175 5.1505 18.0575 4.59912 17.9637C6.39872 20.6959 9.49801 22.4999 13.0196 22.4999C17.5316 22.4999 21.3505 19.5387 22.6304 15.4579C24.1877 14.6188 25.1131 13.5699 25.1131 12.4318C25.1131 11.7913 24.8197 11.1789 24.2855 10.6164L24.014 7.61709C24.3327 7.48539 24.5567 7.17224 24.5567 6.80681C24.5567 6.32257 24.1634 5.93017 23.6782 5.93017C23.1929 5.93017 22.7993 6.32257 22.7993 6.80681C22.7993 7.17224 23.0233 7.48539 23.342 7.61709L23.1525 9.71012C22.9823 9.60261 22.8024 9.49798 22.6133 9.39659C22.1275 7.87788 21.2896 6.51617 20.1953 5.4071C20.171 5.97818 20.1108 6.53999 20.0167 7.09031C21.162 8.57528 21.843 10.435 21.843 12.4536C21.843 15.9924 19.75 19.043 16.7319 20.4416L16.4071 18.5055Z" fill="#0095FF"/>
<path fill-rule="evenodd" clip-rule="evenodd" d="M13.0191 17.0224C16.1151 17.0224 18.8919 16.4156 20.7789 15.4552C21.1413 14.524 21.3399 13.5113 21.3399 12.4522C21.3399 11.3932 21.1412 10.3805 20.7789 9.4493C20.4073 9.26015 20.0012 9.08471 19.565 8.92493C19.3744 9.51445 19.1437 10.0859 18.8763 10.6363C19.4426 11.0415 19.8116 11.7039 19.8116 12.4522C19.8116 13.6855 18.8096 14.6852 17.5736 14.6852C17.0899 14.6852 16.6421 14.532 16.276 14.2718C15.1281 15.4121 13.7734 16.3453 12.2729 17.0106C12.5194 17.0184 12.7682 17.0224 13.0191 17.0224Z" fill="#0095FF"/>
</g>
</g>
</g>
<defs>
<clipPath id="clip0_1_85">
<rect width="25" height="22" fill="white" transform="translate(0.52002 0.5)"/>
</clipPath>
<clipPath id="clip1_1_85">
<rect width="25" height="22" fill="white" transform="translate(0.52002 0.5)"/>
</clipPath>
<clipPath id="clip2_1_85">
<rect width="25" height="22" fill="white" transform="translate(0.52002 0.5)"/>
</clipPath>
</defs>
</svg>
