<svg width="40" height="41" viewBox="0 0 40 41" fill="none" xmlns="http://www.w3.org/2000/svg">
<rect y="0.429688" width="40" height="40" rx="14" fill="#F7F7FC"/>
<g clip-path="url(#clip0_1_275)">
<g clip-path="url(#clip1_1_275)">
<path d="M28.6581 21.1036L29.1973 19.0913C29.8267 16.7422 30.1414 15.5677 29.9044 14.5513C29.7173 13.7487 29.2963 13.0197 28.6949 12.4563C27.9331 11.7429 26.7586 11.4281 24.4095 10.7987C22.0606 10.1693 20.886 9.85458 19.8695 10.0916C19.067 10.2787 18.338 10.6996 17.7746 11.3011C17.1638 11.9533 16.8452 12.9081 16.3712 14.6435C16.2916 14.935 16.2076 15.2485 16.1171 15.5862L15.5778 17.5988C14.9484 19.9478 14.6337 21.1223 14.8707 22.1388C15.0578 22.9413 15.4788 23.6703 16.0802 24.2337C16.842 24.9471 18.0165 25.2619 20.3656 25.8913C22.4828 26.4586 23.6459 26.7703 24.5991 26.6527C24.7035 26.6399 24.8052 26.6218 24.9056 26.5985C25.7081 26.4113 26.4371 25.9904 27.0005 25.3889C27.7139 24.6271 28.0287 23.4526 28.6581 21.1036Z" fill="#C98280"/>
<path opacity="0.5" d="M24.5987 26.653C24.3815 27.318 23.9997 27.9196 23.4863 28.4004C22.7245 29.1139 21.55 29.4286 19.201 30.058C16.8519 30.6874 15.6774 31.0022 14.661 30.7652C13.8584 30.578 13.1294 30.1571 12.566 29.5556C11.8526 28.7939 11.5378 27.6194 10.9084 25.2703L10.3692 23.258C9.73979 20.9089 9.42508 19.7344 9.66207 18.718C9.8492 17.9154 10.2701 17.1863 10.8716 16.623C11.6334 15.9095 12.8079 15.5949 15.1569 14.9654C15.6013 14.8464 16.0037 14.7385 16.3709 14.6436C16.3708 14.6437 16.3709 14.6435 16.3709 14.6436C16.2913 14.935 16.2073 15.249 16.1168 15.5868L15.5776 17.5991C14.9481 19.9482 14.6334 21.1227 14.8704 22.1391C15.0575 22.9417 15.4784 23.6707 16.0799 24.2341C16.8417 24.9475 18.0162 25.2623 20.3652 25.8916C22.4825 26.459 23.6455 26.7706 24.5987 26.653Z" fill="#C98280"/>
</g>
</g>
<defs>
<clipPath id="clip0_1_275">
<rect width="25" height="25" fill="white" transform="translate(7.5 7.92969)"/>
</clipPath>
<clipPath id="clip1_1_275">
<rect width="25" height="25" fill="white" transform="translate(7.5 7.92969)"/>
</clipPath>
</defs>
</svg>
