<svg width="40" height="41" viewBox="0 0 40 41" fill="none" xmlns="http://www.w3.org/2000/svg">
<rect y="0.429688" width="40" height="40" rx="14" fill="#F7F7FC"/>
<g clip-path="url(#clip0_1_287)">
<g clip-path="url(#clip1_1_287)">
<path opacity="0.5" d="M30.4166 24.5963V23.5547C30.4166 20.6085 30.4163 19.1357 29.501 18.2205C28.5857 17.3052 27.1126 17.3052 24.1663 17.3052H15.833C12.8867 17.3052 11.4136 17.3052 10.4983 18.2205C9.5832 19.1355 9.5832 20.6077 9.5832 23.5524V23.5547V24.5963C9.5832 27.5427 9.5832 29.0158 10.4985 29.9311C11.4138 30.8463 12.8869 30.8463 15.8332 30.8463H24.1666C27.1128 30.8463 28.5859 30.8463 29.5012 29.9311C30.4166 29.0158 30.4166 27.5427 30.4166 24.5963Z" fill="#7288D4"/>
<path fill-rule="evenodd" clip-rule="evenodd" d="M20 9.23145C19.5685 9.23145 19.2187 9.58123 19.2187 10.0127V21.4425L17.4681 19.4001C17.1873 19.0725 16.6941 19.0346 16.3666 19.3154C16.039 19.5961 16.001 20.0893 16.2818 20.417L19.4068 24.0628C19.5552 24.236 19.772 24.3356 20 24.3356C20.228 24.3356 20.4448 24.236 20.5931 24.0628L23.7181 20.417C23.999 20.0893 23.961 19.5961 23.6334 19.3154C23.3058 19.0346 22.8126 19.0725 22.5318 19.4001L20.7812 21.4425V10.0127C20.7812 9.58123 20.4315 9.23145 20 9.23145Z" fill="#7288D4"/>
</g>
</g>
<defs>
<clipPath id="clip0_1_287">
<rect width="25" height="25" fill="white" transform="translate(7.5 7.92969)"/>
</clipPath>
<clipPath id="clip1_1_287">
<rect width="25" height="25" fill="white" transform="translate(7.5 7.92969)"/>
</clipPath>
</defs>
</svg>
