<svg width="40" height="41" viewBox="0 0 40 41" fill="none" xmlns="http://www.w3.org/2000/svg">
<rect y="0.429688" width="40" height="40" rx="14" fill="#F7F7FC"/>
<g clip-path="url(#clip0_1_260)">
<g clip-path="url(#clip1_1_260)">
<path opacity="0.5" d="M10.8036 16.1813C9.5832 17.4017 9.5832 19.3659 9.5832 23.2943C9.5832 27.2227 9.5832 29.1868 10.8036 30.4072C12.024 31.6276 13.9882 31.6276 17.9166 31.6276H22.0832C26.0116 31.6276 27.9758 31.6276 29.1962 30.4072C30.4166 29.1868 30.4166 27.2227 30.4166 23.2943C30.4166 19.3659 30.4166 17.4017 29.1962 16.1813C27.9758 14.9609 26.0116 14.9609 22.0832 14.9609H17.9166C13.9882 14.9609 12.024 14.9609 10.8036 16.1813Z" fill="#F2C05F"/>
<path d="M24.1668 19.1273C24.7421 19.1273 25.2084 18.6609 25.2084 18.0856C25.2084 17.5104 24.7421 17.0439 24.1668 17.0439C23.5915 17.0439 23.1252 17.5104 23.1252 18.0856C23.1252 18.6609 23.5915 19.1273 24.1668 19.1273Z" fill="#F2C05F"/>
<path d="M16.8752 18.0856C16.8752 18.6609 16.4087 19.1273 15.8334 19.1273C15.2582 19.1273 14.7918 18.6609 14.7918 18.0856C14.7918 17.5104 15.2582 17.0439 15.8334 17.0439C16.4087 17.0439 16.8752 17.5104 16.8752 18.0856Z" fill="#F2C05F"/>
<path d="M20.0541 10.0127H19.9457C19.0098 10.0127 18.2294 10.0126 17.6098 10.0959C16.9559 10.1839 16.3654 10.3773 15.891 10.8517C15.4166 11.3262 15.2231 11.9166 15.1352 12.5705C15.0519 13.1901 15.0519 13.9705 15.052 14.9064V14.9874C15.528 14.9718 16.0471 14.9653 16.6144 14.9626V14.9606C16.6144 13.9564 16.6161 13.2819 16.6837 12.7787C16.7484 12.298 16.8601 12.0923 16.9959 11.9566C17.1316 11.8208 17.3373 11.7091 17.818 11.6445C18.3212 11.5769 18.9957 11.5752 19.9998 11.5752C21.0041 11.5752 21.6786 11.5769 22.1818 11.6445C22.6624 11.7091 22.8682 11.8208 23.0039 11.9566C23.1397 12.0923 23.2513 12.298 23.316 12.7787C23.3837 13.2819 23.3853 13.9564 23.3853 14.9606V14.9626C23.9527 14.9653 24.4717 14.9718 24.9478 14.9874V14.9065C24.9478 13.9705 24.9478 13.1901 24.8645 12.5705C24.7766 11.9166 24.5832 11.3262 24.1087 10.8517C23.6343 10.3773 23.0439 10.1839 22.3899 10.0959C21.7704 10.0126 20.9899 10.0127 20.0541 10.0127Z" fill="#F2C05F"/>
</g>
</g>
<defs>
<clipPath id="clip0_1_260">
<rect width="25" height="25" fill="white" transform="translate(7.5 7.92969)"/>
</clipPath>
<clipPath id="clip1_1_260">
<rect width="25" height="25" fill="white" transform="translate(7.5 7.92969)"/>
</clipPath>
</defs>
</svg>
