<svg width="40" height="41" viewBox="0 0 40 41" fill="none" xmlns="http://www.w3.org/2000/svg">
<rect y="0.429688" width="40" height="40" rx="14" fill="#F7F7FC"/>
<g clip-path="url(#clip0_1_248)">
<g clip-path="url(#clip1_1_248)">
<path opacity="0.5" fill-rule="evenodd" clip-rule="evenodd" d="M30.4165 16.5684C30.4165 20.1889 27.4694 23.124 23.834 23.124C23.1706 23.124 21.6602 22.9716 20.9254 22.3618L20.0069 23.2765C19.4669 23.8143 19.6126 23.9727 19.8529 24.2336C19.9531 24.3424 20.0698 24.469 20.16 24.6486C20.16 24.6486 20.9254 25.7158 20.16 26.783C19.7007 27.3929 18.4148 28.2466 16.9452 26.783L16.639 27.0879C16.639 27.0879 17.5576 28.1551 16.7921 29.2223C16.3329 29.8321 15.1082 30.442 14.0366 29.3748L12.9651 30.442C12.2303 31.1738 11.3322 30.7469 10.975 30.442L10.0565 29.5272C9.19927 28.6735 9.69934 27.7486 10.0565 27.3929L18.0169 19.465C18.0169 19.465 17.2514 18.2454 17.2514 16.5684C17.2514 12.9478 20.1985 10.0127 23.834 10.0127C27.4694 10.0127 30.4165 12.9478 30.4165 16.5684Z" fill="#1B8679"/>
<path d="M26.1305 16.5686C26.1305 17.8316 25.1025 18.8554 23.8343 18.8554C22.5661 18.8554 21.5381 17.8316 21.5381 16.5686C21.5381 15.3056 22.5661 14.2817 23.8343 14.2817C25.1025 14.2817 26.1305 15.3056 26.1305 16.5686Z" fill="#1B8679"/>
</g>
</g>
<defs>
<clipPath id="clip0_1_248">
<rect width="25" height="25" fill="white" transform="translate(7.5 7.92969)"/>
</clipPath>
<clipPath id="clip1_1_248">
<rect width="25" height="25" fill="white" transform="translate(7.5 7.92969)"/>
</clipPath>
</defs>
</svg>
