<svg width="40" height="41" viewBox="0 0 40 41" fill="none" xmlns="http://www.w3.org/2000/svg">
<rect y="0.110107" width="40" height="40" rx="14" fill="#F7F7FC"/>
<g clip-path="url(#clip0_1_97)">
<g clip-path="url(#clip1_1_97)">
<path fill-rule="evenodd" clip-rule="evenodd" d="M29.5651 18.7187L29.0043 20.8116C28.3498 23.2545 28.0224 24.476 27.2805 25.2683C26.6946 25.8938 25.9363 26.3315 25.1017 26.5262C24.9974 26.5505 24.8915 26.5692 24.783 26.5826C23.7917 26.7049 22.5821 26.3808 20.3801 25.7907C17.9371 25.1362 16.7156 24.8088 15.9234 24.0668C15.2979 23.4809 14.8601 22.7227 14.6655 21.8881C14.419 20.831 14.7463 19.6095 15.4009 17.1665L15.9617 15.0737C16.0558 14.7224 16.1432 14.3962 16.226 14.0931C16.719 12.2882 17.0503 11.2952 17.6856 10.6169C18.2715 9.99138 19.0297 9.55363 19.8643 9.35902C20.9214 9.11254 22.1429 9.43984 24.5859 10.0944C27.0289 10.749 28.2504 11.0763 29.0427 11.8183C29.6681 12.4042 30.1059 13.1624 30.3005 13.9971C30.547 15.0542 30.2198 16.2757 29.5651 18.7187ZM18.9735 17.7333C19.0897 17.2999 19.5352 17.0427 19.9687 17.1588L25.2008 18.5608C25.6342 18.6769 25.8914 19.1225 25.7753 19.5558C25.6591 19.9893 25.2136 20.2465 24.7801 20.1304L19.5481 18.7285C19.1147 18.6123 18.8574 18.1668 18.9735 17.7333ZM18.1319 20.8723C18.2481 20.4389 18.6936 20.1816 19.127 20.2977L22.2664 21.1389C22.6997 21.255 22.957 21.7006 22.8409 22.134C22.7247 22.5675 22.2792 22.8247 21.8457 22.7085L18.7065 21.8674C18.273 21.7512 18.0158 21.3057 18.1319 20.8723Z" fill="#1B8679"/>
<path opacity="0.5" d="M24.7827 26.5824C24.5567 27.274 24.1596 27.8996 23.6258 28.3996C22.8335 29.1417 21.612 29.469 19.169 30.1236C16.726 30.7782 15.5045 31.1055 14.4474 30.859C13.6127 30.6644 12.8545 30.2266 12.2686 29.6011C11.5266 28.8089 11.1993 27.5874 10.5447 25.1444L9.98397 23.0515C9.32937 20.6085 9.00207 19.387 9.24854 18.3299C9.44316 17.4952 9.88091 16.737 10.5064 16.1512C11.2987 15.4091 12.5202 15.0819 14.9632 14.4273C15.4254 14.3034 15.8439 14.1913 16.2257 14.0926C16.2257 14.0927 16.2257 14.0924 16.2257 14.0926C16.143 14.3957 16.0555 14.7222 15.9614 15.0735L15.4007 17.1663C14.746 19.6093 14.4187 20.8308 14.6652 21.8879C14.8598 22.7225 15.2975 23.4808 15.9231 24.0667C16.7154 24.8086 17.9369 25.136 20.3798 25.7905C22.5818 26.3806 23.7913 26.7047 24.7827 26.5824Z" fill="#1B8679"/>
</g>
</g>
<defs>
<clipPath id="clip0_1_97">
<rect width="26" height="26" fill="white" transform="translate(7 7.11011)"/>
</clipPath>
<clipPath id="clip1_1_97">
<rect width="26" height="26" fill="white" transform="translate(7 7.11011)"/>
</clipPath>
</defs>
</svg>
