<svg width="40" height="41" viewBox="0 0 40 41" fill="none" xmlns="http://www.w3.org/2000/svg">
<rect y="0.429688" width="40" height="40" rx="14" fill="#F7F7FC"/>
<g clip-path="url(#clip0_1_236)">
<g clip-path="url(#clip1_1_236)">
<path opacity="0.5" d="M11.0182 13.2235C10.625 13.7838 10.625 15.4492 10.625 18.78V20.4204C10.625 26.2933 15.0406 29.1434 17.811 30.3536C18.5625 30.6819 18.9383 30.8461 20 30.8461C21.0617 30.8461 21.4375 30.6819 22.189 30.3536C24.9594 29.1434 29.375 26.2934 29.375 20.4204V18.78C29.375 15.4492 29.375 13.7838 28.9817 13.2235C28.5885 12.6633 27.0226 12.1272 23.8907 11.0552L23.2941 10.8509C21.6615 10.2921 20.8452 10.0127 20 10.0127C19.1548 10.0127 18.3385 10.2921 16.7059 10.8509L16.1093 11.0552C12.9774 12.1272 11.4115 12.6633 11.0182 13.2235Z" fill="#7534FF"/>
<path d="M23.1868 18.8665C23.4741 18.5447 23.4463 18.0508 23.1244 17.7635C22.8025 17.4761 22.3087 17.504 22.0213 17.8259L18.8838 21.3399L17.9785 20.3259C17.6911 20.004 17.1973 19.9761 16.8754 20.2635C16.5535 20.5508 16.5255 21.0447 16.813 21.3665L18.301 23.0332C18.4493 23.1992 18.6612 23.2941 18.8838 23.2941C19.1063 23.2941 19.3184 23.1992 19.4666 23.0332L23.1868 18.8665Z" fill="#7534FF"/>
</g>
</g>
<defs>
<clipPath id="clip0_1_236">
<rect width="25" height="25" fill="white" transform="translate(7.5 7.92969)"/>
</clipPath>
<clipPath id="clip1_1_236">
<rect width="25" height="25" fill="white" transform="translate(7.5 7.92969)"/>
</clipPath>
</defs>
</svg>
