<svg width="40" height="41" viewBox="0 0 40 41" fill="none" xmlns="http://www.w3.org/2000/svg">
<rect y="0.540039" width="40" height="40" rx="14" fill="#F7F7FC"/>
<g clip-path="url(#clip0_1_63)">
<g clip-path="url(#clip1_1_63)">
<path opacity="0.5" d="M10.25 18.3736C10.25 14.2881 10.25 12.2453 11.5192 10.9761C12.7884 9.70691 14.8312 9.70691 18.9167 9.70691H21.0833C25.1688 9.70691 27.2116 9.70691 28.4808 10.9761C29.75 12.2453 29.75 14.2881 29.75 18.3736V22.7069C29.75 26.7924 29.75 28.8352 28.4808 30.1044C27.2116 31.3736 25.1688 31.3736 21.0833 31.3736H18.9167C14.8312 31.3736 12.7884 31.3736 11.5192 30.1044C10.25 28.8352 10.25 26.7924 10.25 22.7069V18.3736Z" fill="#B7A492"/>
<path d="M24.8955 25.4161C25.085 25.2682 25.257 25.0963 25.6009 24.7524L29.888 20.4652C29.9917 20.3615 29.9443 20.183 29.8058 20.135C29.2998 19.9594 28.6414 19.6298 28.0257 19.014C27.4099 18.3982 27.0803 17.7399 26.9047 17.2339C26.8567 17.0954 26.6781 17.048 26.5745 17.1516L22.2873 21.4388C21.9434 21.7827 21.7715 21.9546 21.6236 22.1442C21.4492 22.3678 21.2996 22.6099 21.1776 22.8659C21.0741 23.0829 20.9973 23.3137 20.8435 23.775L20.6447 24.3712L20.3287 25.3192L20.0324 26.208C19.9568 26.4351 20.0158 26.6854 20.1851 26.8546C20.3543 27.0239 20.6047 27.0829 20.8317 27.0072L21.7206 26.711L22.6685 26.395L23.2647 26.1963C23.726 26.0425 23.9567 25.9656 24.1738 25.8622C24.4298 25.7401 24.6718 25.5905 24.8955 25.4161Z" fill="#B7A492"/>
<path d="M31.2304 19.1229C32.1454 18.2079 32.1454 16.7243 31.2304 15.8093C30.3153 14.8943 28.8318 14.8943 27.9168 15.8093L27.779 15.9472C27.6459 16.0802 27.5857 16.2659 27.619 16.4511C27.6399 16.5675 27.6786 16.7378 27.7491 16.9409C27.89 17.3473 28.1563 17.8807 28.6577 18.3821C29.1591 18.8835 29.6924 19.1497 30.0987 19.2907C30.3019 19.3611 30.4722 19.3999 30.5887 19.4208C30.7737 19.454 30.9596 19.3937 31.0926 19.2608L31.2304 19.1229Z" fill="#B7A492"/>
<path fill-rule="evenodd" clip-rule="evenodd" d="M14.854 17.29C14.854 16.8413 15.2178 16.4775 15.6665 16.4775H22.7082C23.1569 16.4775 23.5207 16.8413 23.5207 17.29C23.5207 17.7388 23.1569 18.1025 22.7082 18.1025H15.6665C15.2178 18.1025 14.854 17.7388 14.854 17.29ZM14.854 21.6233C14.854 21.1746 15.2178 20.8108 15.6665 20.8108H18.9165C19.3652 20.8108 19.729 21.1746 19.729 21.6233C19.729 22.0721 19.3652 22.4358 18.9165 22.4358H15.6665C15.2178 22.4358 14.854 22.0721 14.854 21.6233ZM14.854 25.9567C14.854 25.508 15.2178 25.1442 15.6665 25.1442H17.2915C17.7402 25.1442 18.104 25.508 18.104 25.9567C18.104 26.4055 17.7402 26.7692 17.2915 26.7692H15.6665C15.2178 26.7692 14.854 26.4055 14.854 25.9567Z" fill="#B7A492"/>
</g>
</g>
<defs>
<clipPath id="clip0_1_63">
<rect width="26" height="26" fill="white" transform="translate(7 7.54004)"/>
</clipPath>
<clipPath id="clip1_1_63">
<rect width="26" height="26" fill="white" transform="translate(7 7.54004)"/>
</clipPath>
</defs>
</svg>
