<svg width="40" height="41" viewBox="0 0 40 41" fill="none" xmlns="http://www.w3.org/2000/svg">
<rect y="0.429688" width="40" height="40" rx="14" fill="#F7F7FC"/>
<g clip-path="url(#clip0_1_221)">
<g clip-path="url(#clip1_1_221)">
<path opacity="0.5" d="M11.5047 11.9344C10.3318 13.1074 10.3318 15.0091 11.5047 16.182L13.1586 17.8359C13.171 17.8216 13.7364 18.3598 13.75 18.3463L17.9166 14.1796C17.9302 14.166 17.392 13.6007 17.4063 13.5883L15.7523 11.9344C14.5794 10.7614 12.6777 10.7614 11.5047 11.9344Z" fill="#B7A492"/>
<path opacity="0.5" d="M12.8472 23.8747C13.0149 23.448 13.6165 23.448 13.7841 23.8747L13.9476 24.2906C13.9988 24.4209 14.1015 24.524 14.2313 24.5754L14.6457 24.7394C15.0708 24.9077 15.0708 25.5115 14.6457 25.6798L14.2313 25.8439C14.1015 25.8952 13.9988 25.9983 13.9476 26.1286L13.7841 26.5446C13.6165 26.9712 13.0149 26.9712 12.8472 26.5446L12.6838 26.1286C12.6326 25.9983 12.5299 25.8952 12.4001 25.8439L11.9856 25.6798C11.5605 25.5115 11.5605 24.9077 11.9856 24.7394L12.4001 24.5754C12.5299 24.524 12.6326 24.4209 12.6838 24.2906L12.8472 23.8747Z" fill="#B7A492"/>
<path opacity="0.2" d="M28.299 17.4396C28.4666 17.013 29.0683 17.013 29.2359 17.4396L29.3994 17.8555C29.4505 17.9859 29.5533 18.0889 29.683 18.1403L30.0975 18.3044C30.5226 18.4727 30.5226 19.0765 30.0975 19.2448L29.683 19.4088C29.5533 19.4602 29.4505 19.5633 29.3994 19.6935L29.2359 20.1095C29.0683 20.5362 28.4666 20.5362 28.299 20.1095L28.1355 19.6935C28.0844 19.5633 27.9816 19.4602 27.8519 19.4088L27.4374 19.2448C27.0123 19.0765 27.0123 18.4727 27.4374 18.3044L27.8519 18.1403C27.9816 18.0889 28.0844 17.9859 28.1355 17.8555L28.299 17.4396Z" fill="#B7A492"/>
<path opacity="0.7" d="M24.2708 10.3327C24.4384 9.90603 25.04 9.90603 25.2077 10.3327L25.656 11.4736C25.7071 11.6039 25.8099 11.707 25.9396 11.7583L27.0764 12.2083C27.5014 12.3766 27.5014 12.9804 27.0764 13.1487L25.9396 13.5986C25.8099 13.65 25.7071 13.7531 25.656 13.8834L25.2077 15.0243C25.04 15.451 24.4384 15.451 24.2708 15.0243L23.8225 13.8834C23.7713 13.7531 23.6685 13.65 23.5388 13.5986L22.4021 13.1487C21.977 12.9804 21.977 12.3766 22.4021 12.2083L23.5388 11.7583C23.6685 11.707 23.7713 11.6039 23.8225 11.4736L24.2708 10.3327Z" fill="#B7A492"/>
<path d="M18.5081 14.6901C18.4957 14.7044 17.9302 14.1659 17.9166 14.1795L13.7499 18.3461C13.7362 18.3597 14.2748 18.9254 14.2604 18.9378L24.2475 28.9249C25.4205 30.0978 27.3222 30.0978 28.4952 28.9249C29.6681 27.7519 29.6681 25.8501 28.4952 24.6772L18.5081 14.6901Z" fill="#B7A492"/>
</g>
</g>
<defs>
<clipPath id="clip0_1_221">
<rect width="25" height="25" fill="white" transform="translate(7.5 7.92969)"/>
</clipPath>
<clipPath id="clip1_1_221">
<rect width="25" height="25" fill="white" transform="translate(7.5 7.92969)"/>
</clipPath>
</defs>
</svg>
