<svg width="25" height="29" viewBox="0 0 25 29" fill="none" xmlns="http://www.w3.org/2000/svg">
<path d="M6.3733 2.31166C5.2412 3.63536 5.2412 5.77735 6.39427 7.10106L8.91004 9.98914C11.2791 12.7087 11.2791 17.1371 8.91004 19.8567L4.29779 14.5619C3.11327 13.2021 2.51578 11.4091 2.51578 9.62813C2.51578 7.84715 3.11327 6.05413 4.29779 4.69432L6.34185 2.34776C6.35234 2.33573 6.36282 2.32369 6.3733 2.31166Z" fill="black" stroke="white" stroke-width="2" stroke-miterlimit="10"/>
<path d="M8.38599 9.38626L6.39433 7.09986C5.24127 5.77616 5.23078 3.6462 6.37337 2.31047C7.50547 1.0349 9.30844 1.05896 10.4301 2.34657C10.9961 2.99638 11.2791 3.85077 11.2791 4.69313C11.2791 5.53549 10.9961 6.38988 10.4301 7.0397L9.95835 7.58121" fill="black"/>
<path d="M8.38599 9.38626L6.39433 7.09986C5.24127 5.77616 5.23078 3.6462 6.37337 2.31047C7.50547 1.0349 9.30844 1.05896 10.4301 2.34657C10.9961 2.99638 11.2791 3.85077 11.2791 4.69313C11.2791 5.53549 10.9961 6.38988 10.4301 7.0397L9.95835 7.58121" stroke="white" stroke-width="2" stroke-miterlimit="10"/>
<path d="M18.2704 25.9566C19.4025 24.6328 19.4025 22.4909 18.2494 21.1672L15.7337 18.2791C13.3646 15.5595 13.3646 11.1311 15.7337 8.41147L20.3459 13.7063C21.5304 15.0661 22.1279 16.8591 22.1279 18.6401C22.1279 20.4211 21.5304 22.2141 20.3459 23.5739L18.3018 25.9205C18.2809 25.9445 18.2704 25.9566 18.2704 25.9566Z" fill="black" stroke="white" stroke-width="2" stroke-miterlimit="10"/>
<path d="M16.2473 18.893L18.239 21.1794C19.392 22.5031 19.4025 24.6331 18.2599 25.9688C17.1278 27.2444 15.3249 27.2203 14.2032 25.9327C13.6372 25.2829 13.3542 24.4285 13.3542 23.5862C13.3542 22.7438 13.6372 21.8894 14.2032 21.2396L14.6854 20.686" fill="black"/>
<path d="M16.2473 18.893L18.239 21.1794C19.392 22.5031 19.4025 24.6331 18.2599 25.9688C17.1278 27.2444 15.3249 27.2203 14.2032 25.9327C13.6372 25.2829 13.3542 24.4285 13.3542 23.5862C13.3542 22.7438 13.6372 21.8894 14.2032 21.2396L14.6854 20.686" stroke="white" stroke-width="2" stroke-miterlimit="10"/>
</svg>
