<svg width="25" height="29" viewBox="0 0 25 29" fill="none" xmlns="http://www.w3.org/2000/svg">
<path d="M6.3733 2.31146C5.2412 3.63517 5.2412 5.77716 6.39427 7.10086L8.91004 9.98894C11.2791 12.7085 11.2791 17.1369 8.91004 19.8565L4.29779 14.5617C3.11327 13.2019 2.51578 11.4089 2.51578 9.62793C2.51578 7.84695 3.11327 6.05393 4.29779 4.69413L6.34185 2.34756C6.35234 2.33553 6.36282 2.3235 6.3733 2.31146Z" fill="black" stroke="white" stroke-width="2" stroke-miterlimit="10"/>
<path d="M8.38599 9.38649L6.39433 7.10009C5.24127 5.77639 5.23078 3.64643 6.37337 2.31069C7.50547 1.03513 9.30844 1.05919 10.4301 2.34679C10.9961 2.99661 11.2791 3.851 11.2791 4.69336C11.2791 5.53572 10.9961 6.39011 10.4301 7.03992L9.95835 7.58144" fill="black"/>
<path d="M8.38599 9.38649L6.39433 7.10009C5.24127 5.77639 5.23078 3.64643 6.37337 2.31069C7.50547 1.03513 9.30844 1.05919 10.4301 2.34679C10.9961 2.99661 11.2791 3.851 11.2791 4.69336C11.2791 5.53572 10.9961 6.39011 10.4301 7.03992L9.95835 7.58144" stroke="white" stroke-width="2" stroke-miterlimit="10"/>
<path d="M18.2704 25.9566C19.4025 24.6329 19.4025 22.4909 18.2494 21.1672L15.7337 18.2792C13.3646 15.5596 13.3646 11.1312 15.7337 8.41156L20.3459 13.7064C21.5304 15.0662 22.1279 16.8592 22.1279 18.6402C22.1279 20.4212 21.5304 22.2142 20.3459 23.574L18.3018 25.9205C18.2809 25.9446 18.2704 25.9566 18.2704 25.9566Z" fill="black" stroke="white" stroke-width="2" stroke-miterlimit="10"/>
<path d="M16.2473 18.8928L18.239 21.1792C19.392 22.5029 19.4025 24.6329 18.2599 25.9686C17.1278 27.2442 15.3249 27.2201 14.2032 25.9325C13.6372 25.2827 13.3542 24.4283 13.3542 23.5859C13.3542 22.7436 13.6372 21.8892 14.2032 21.2394L14.6854 20.6858" fill="black"/>
<path d="M16.2473 18.8928L18.239 21.1792C19.392 22.5029 19.4025 24.6329 18.2599 25.9686C17.1278 27.2442 15.3249 27.2201 14.2032 25.9325C13.6372 25.2827 13.3542 24.4283 13.3542 23.5859C13.3542 22.7436 13.6372 21.8892 14.2032 21.2394L14.6854 20.6858" stroke="white" stroke-width="2" stroke-miterlimit="10"/>
</svg>
