<svg width="18" height="21" viewBox="0 0 18 21" fill="none" xmlns="http://www.w3.org/2000/svg">
<g clip-path="url(#clip0_1_22)">
<path d="M14.3389 8.85198C14.3389 8.64365 14.2719 8.47252 14.138 8.33859L13.1224 7.33412C12.981 7.19276 12.8136 7.12207 12.6202 7.12207C12.4267 7.12207 12.2593 7.19276 12.1179 7.33412L7.56435 11.8765L5.04203 9.35421C4.90066 9.21284 4.73325 9.14216 4.53979 9.14216C4.34634 9.14216 4.17893 9.21284 4.03756 9.35421L3.02194 10.3587C2.88801 10.4926 2.82104 10.6637 2.82104 10.8721C2.82104 11.073 2.88801 11.2404 3.02194 11.3743L7.06212 15.4145C7.20349 15.5559 7.3709 15.6265 7.56435 15.6265C7.76524 15.6265 7.93637 15.5559 8.07774 15.4145L14.138 9.35421C14.2719 9.22029 14.3389 9.05287 14.3389 8.85198ZM16.0018 6.35756C16.0018 6.35756 16.1934 6.68587 16.5766 7.34249C16.9598 7.99912 17.1514 9.10496 17.1514 10.66C17.1514 12.2151 16.7682 13.6492 16.0018 14.9625C15.2355 16.2757 14.1957 17.3155 12.8824 18.0819C11.5692 18.8483 10.135 19.2314 8.57997 19.2314C7.02491 19.2314 5.59076 18.8483 4.27752 18.0819C2.96427 17.3155 1.92447 16.2757 1.1581 14.9625C0.391729 13.6492 0.00854492 12.2151 0.00854492 10.66C0.00854492 9.10496 0.391729 7.67081 1.1581 6.35756C1.92447 5.04432 2.96427 4.00451 4.27752 3.23814C5.59076 2.47177 7.02491 2.08859 8.57997 2.08859C10.135 2.08859 11.5692 2.47177 12.8824 3.23814C14.1957 4.00451 15.2355 5.04432 16.0018 6.35756Z" fill="black"/>
</g>
<defs>
<clipPath id="clip0_1_22">
<rect width="17.16" height="20" fill="white" transform="matrix(1 0 0 -1 0 20.66)"/>
</clipPath>
</defs>
</svg>
