<svg width="51" height="50" viewBox="0 0 51 50" fill="none" xmlns="http://www.w3.org/2000/svg">
<g clip-path="url(#clip0_1_445)">
<g clip-path="url(#clip1_1_445)">
<g clip-path="url(#clip2_1_445)">
<path d="M35.5321 0.919922H15.1279C7.2397 0.919922 0.845016 7.3146 0.845016 15.2028V35.607C0.845016 43.4952 7.2397 49.8899 15.1279 49.8899H35.5321C43.4203 49.8899 49.815 43.4952 49.815 35.607V15.2028C49.815 7.3146 43.4203 0.919922 35.5321 0.919922Z" fill="#F7F7FC"/>
<path fill-rule="evenodd" clip-rule="evenodd" d="M22.3522 23.7786C22.374 23.7922 22.3958 23.806 22.4176 23.8198L22.793 24.0567C23.0128 24.1954 23.1265 24.2661 23.213 24.3111C23.2263 24.3182 23.237 24.3234 23.2452 24.3271C23.2563 24.3255 23.2717 24.323 23.2922 24.3189C23.3945 24.2983 23.5314 24.2601 23.7883 24.1871L24.2286 24.062C24.253 24.055 24.2773 24.0481 24.3014 24.0413C25.0898 23.8171 25.788 23.6187 26.3449 23.5448C26.9197 23.4686 27.6635 23.4782 28.2371 24.0519C28.8108 24.6255 28.8205 25.3693 28.7441 25.9441C28.6703 26.501 28.4719 27.1992 28.2477 27.9875C28.2409 28.0118 28.2339 28.0361 28.227 28.0605L28.1019 28.5008C28.029 28.7576 27.9908 28.8945 27.9702 28.9969C27.966 29.0172 27.9635 29.0326 27.9619 29.0439C27.9657 29.052 27.9709 29.0626 27.9779 29.076C28.0229 29.1626 28.0936 29.2762 28.2324 29.4961L28.4692 29.8714C28.483 29.8932 28.4967 29.915 28.5104 29.9368C28.9326 30.6057 29.3113 31.2057 29.5328 31.7152C29.7697 32.2602 29.9403 32.956 29.5706 33.6595C29.2062 34.3528 28.5442 34.6183 27.9648 34.75C27.4149 34.8751 26.6961 34.9311 25.8854 34.9943L25.3583 35.0354C25.0941 35.0561 24.9544 35.0677 24.8519 35.0839C24.8213 35.0888 24.8019 35.093 24.7906 35.0957C24.7811 35.1039 24.7649 35.119 24.7403 35.1445C24.6658 35.2222 24.5728 35.334 24.4017 35.5418L24.0609 35.9558C23.5331 36.597 23.0684 37.1615 22.6494 37.5447C22.2169 37.9404 21.614 38.35 20.8293 38.2426C20.0238 38.1323 19.5685 37.5547 19.2844 37.0424C19.0155 36.5578 18.7686 35.8893 18.4932 35.1435C18.4842 35.1192 18.4752 35.0948 18.4662 35.0703L18.3116 34.6519C18.221 34.4067 18.1735 34.2803 18.132 34.1914C18.1279 34.1823 18.1241 34.1747 18.1208 34.1682C18.1144 34.1649 18.1066 34.1612 18.0976 34.1569C18.0087 34.1155 17.8824 34.068 17.6371 33.9774L17.2186 33.8228C17.1943 33.8137 17.1699 33.8048 17.1455 33.7958C16.3997 33.5203 15.7313 33.2734 15.2466 33.0047C14.7343 32.7206 14.1567 32.2652 14.0464 31.4597C13.939 30.675 14.3486 30.0722 14.7443 29.6396C15.1275 29.2206 15.692 28.7559 16.3332 28.2281C16.3521 28.2125 16.3712 28.1969 16.3902 28.1812L16.7473 27.8873C16.955 27.7162 17.0667 27.6232 17.1445 27.5486C17.17 27.5241 17.1851 27.5078 17.1932 27.4984C17.196 27.4871 17.2002 27.4677 17.2051 27.437C17.2213 27.3346 17.2329 27.1948 17.2535 26.9307L17.2888 26.4781C17.2908 26.4533 17.2927 26.4284 17.2947 26.4036C17.3579 25.5929 17.4139 24.8741 17.539 24.3242C17.6707 23.7448 17.9362 23.0828 18.6295 22.7185C19.3331 22.3486 20.0288 22.5194 20.5738 22.7562C21.0833 22.9777 21.6834 23.3564 22.3522 23.7786Z" fill="#7534FF"/>
<path opacity="0.5" fill-rule="evenodd" clip-rule="evenodd" d="M33.5196 36.3082C32.7951 36.1292 31.999 35.8737 31.1429 35.5387C30.6182 35.3335 30.0264 35.5924 29.8211 36.1171C29.6157 36.6418 29.8747 37.2336 30.3994 37.4389C31.6842 37.9415 32.9116 38.3056 34.0332 38.5017C34.4783 38.5795 34.9067 38.6308 35.3154 38.6537C35.5247 38.6655 35.7288 38.6699 35.9272 38.6665C35.9748 38.6658 36.0222 38.6645 36.0696 38.6627C36.3751 38.6518 36.6689 38.622 36.9492 38.5718C37.2785 38.5128 37.5968 38.4235 37.8955 38.3001C38.6359 37.9967 39.2536 37.4857 39.624 36.6964C40.1294 35.6192 40.0016 34.35 39.5852 33.1228C39.5322 32.9668 39.4738 32.809 39.4101 32.6496C39.3022 32.3794 39.1792 32.1045 39.0418 31.8259C38.6124 30.9541 38.0445 30.0452 37.3675 29.124C35.3218 26.3403 32.1736 23.2984 28.4114 20.6258C24.6533 17.9563 20.9206 16.1085 17.8974 15.3097C16.3927 14.9123 14.9903 14.7547 13.8201 14.9401C13.3848 15.009 12.9667 15.1293 12.5855 15.3093C11.9241 15.6219 11.3735 16.1149 11.0361 16.8339C10.6349 17.6888 10.627 18.6703 10.8665 19.6854C10.9396 19.9959 11.0352 20.3069 11.1482 20.6152C11.2762 20.9647 11.4308 21.3227 11.61 21.6878C11.6528 21.7751 11.6968 21.8621 11.7418 21.9491C11.8603 22.1779 11.9885 22.4099 12.1259 22.6445C12.1964 22.765 12.2694 22.8863 12.3448 23.0081C12.4895 23.2422 12.643 23.4786 12.8049 23.7169C12.9568 23.9406 13.1162 24.1661 13.2827 24.3929C14.1051 25.5137 15.1005 26.6684 16.232 27.8171C16.6273 28.2184 17.2733 28.2233 17.6747 27.8279C18.0761 27.4325 18.0809 26.7866 17.6856 26.3851C16.7585 25.4441 15.9452 24.5161 15.2598 23.6271C15.2585 23.6254 15.2572 23.6237 15.256 23.6221C14.6182 22.7944 14.0972 22.008 13.6983 21.2817C13.6482 21.1905 13.6 21.1001 13.5536 21.0107C13.5402 20.9847 13.5269 20.9588 13.5139 20.9332C13.491 20.8882 13.4687 20.8438 13.447 20.7997C13.295 20.4911 13.1673 20.195 13.0641 19.9132C12.9709 19.6591 12.9009 19.4256 12.8507 19.2116C12.6908 18.5269 12.7302 18.0267 12.8833 17.7007C12.972 17.5115 13.121 17.3351 13.3729 17.1961C13.5498 17.0986 13.7774 17.0195 14.0705 16.9671C14.8028 16.836 15.8332 16.9005 17.1304 17.2199C17.1351 17.221 17.1399 17.2221 17.1447 17.2232C17.221 17.2421 17.2981 17.2618 17.3763 17.2825C20.0935 18.0003 23.6036 19.7134 27.2298 22.2893C30.6507 24.7194 33.4984 27.4371 35.3983 29.9007C35.4002 29.9033 35.4021 29.9059 35.4042 29.9084C35.956 30.6246 36.4205 31.3101 36.7941 31.9522C36.8368 32.0256 36.8783 32.0984 36.9186 32.1705C36.9236 32.1796 36.9286 32.1886 36.9336 32.1976C37.2138 32.7024 37.435 33.1777 37.5961 33.6172C37.616 33.6716 37.635 33.7253 37.653 33.7786C37.7717 34.1282 37.8448 34.436 37.8821 34.7051C37.9513 35.2067 37.8961 35.5755 37.7768 35.8296C37.6729 36.0511 37.476 36.2649 37.1175 36.4154C36.9707 36.476 36.7965 36.5263 36.5896 36.5633C35.8572 36.6944 34.8268 36.6301 33.5297 36.3106C33.5264 36.3098 33.523 36.309 33.5196 36.3082Z" fill="#7534FF"/>
<path fill-rule="evenodd" clip-rule="evenodd" d="M35.7569 12.3582C36.2011 12.705 36.2799 13.3461 35.9333 13.7902L35.7818 13.9841C35.9502 14.8792 36.3607 15.7074 36.9662 16.3719C37.3457 16.7884 37.3158 17.4336 36.8993 17.8132C36.4828 18.1926 35.8376 18.1627 35.4581 17.7462C34.8454 17.0738 34.3755 16.2877 34.0693 15.4374C33.9273 15.5223 33.7836 15.5996 33.6344 15.67C33.4715 15.747 33.3065 15.8138 33.1358 15.8733C33.578 16.6776 33.8594 17.569 33.9581 18.4953C34.0179 19.0556 33.6121 19.5581 33.0519 19.6179C32.4916 19.6777 31.9889 19.2719 31.9292 18.7117C31.8327 17.8071 31.4917 16.9547 30.9518 16.2485L30.7367 16.2412C30.1737 16.2223 29.7325 15.7504 29.7514 15.1872C29.7704 14.6241 30.2422 14.183 30.8054 14.2019L31.3594 14.2206C32.0749 14.0793 32.4444 13.9756 32.7628 13.8252C33.0826 13.6741 33.4016 13.4518 33.9749 12.9829L34.3249 12.5345C34.6717 12.0904 35.3128 12.0114 35.7569 12.3582Z" fill="#7534FF"/>
</g>
</g>
</g>
<defs>
<clipPath id="clip0_1_445">
<rect width="50" height="48.97" fill="white" transform="translate(0.330017 0.919922)"/>
</clipPath>
<clipPath id="clip1_1_445">
<rect width="50" height="48.97" fill="white" transform="translate(0.330017 0.919922)"/>
</clipPath>
<clipPath id="clip2_1_445">
<rect width="49.9902" height="48.97" fill="white" transform="translate(0.334915 0.919922)"/>
</clipPath>
</defs>
</svg>
