<svg width="50" height="51" viewBox="0 0 50 51" fill="none" xmlns="http://www.w3.org/2000/svg">
<g clip-path="url(#clip0_1_324)">
<g clip-path="url(#clip1_1_324)">
<g clip-path="url(#clip2_1_324)">
<path d="M35.4167 0.919922H14.5833C6.52918 0.919922 0 7.4491 0 15.5033V36.3366C0 44.3907 6.52918 50.9199 14.5833 50.9199H35.4167C43.4708 50.9199 50 44.3907 50 36.3366V15.5033C50 7.4491 43.4708 0.919922 35.4167 0.919922Z" fill="#F7F7FC"/>
<path d="M24.417 15.8869C25.3819 13.4273 25.8644 12.1975 26.8733 12.0459C27.8823 11.8943 28.7496 12.9212 30.4841 14.9752L30.9328 15.5066C31.4257 16.0902 31.6722 16.3821 32.0073 16.5487C32.3424 16.7154 32.7281 16.7379 33.4998 16.7831L34.2022 16.8242C36.9175 16.9831 38.2751 17.0626 38.7462 17.9502C39.2174 18.8379 38.49 19.9458 37.0352 22.1618L36.6588 22.7351C36.2455 23.3648 36.0387 23.6797 35.9829 24.0392C35.9271 24.3986 36.0284 24.7621 36.2311 25.4888L36.4156 26.1506C37.1288 28.7084 37.4854 29.9873 36.7676 30.6875C36.0499 31.3877 34.733 31.0455 32.0995 30.361L31.4181 30.1839C30.6697 29.9895 30.2955 29.8923 29.9259 29.9478C29.5563 30.0033 29.2331 30.2054 28.5868 30.6094L27.9984 30.9773C25.724 32.3992 24.5867 33.1101 23.672 32.6552C22.7572 32.2003 22.6707 30.8808 22.4978 28.2419L22.4531 27.5592C22.404 26.8093 22.3794 26.4343 22.2068 26.1092C22.0343 25.7839 21.7331 25.5454 21.131 25.0683L20.5828 24.634C18.464 22.9549 17.4045 22.1154 17.557 21.1341C17.7094 20.1527 18.9727 19.6795 21.4995 18.7329L22.1532 18.488C22.8712 18.2191 23.2302 18.0846 23.4931 17.828C23.7561 17.5716 23.8932 17.2221 24.1674 16.5231L24.417 15.8869Z" fill="#B7A492"/>
<g opacity="0.5">
<path d="M15.7085 22.5762C12.3236 25.8101 10.1043 31.2053 11.5713 39.8087C12.8808 36.1925 16.4686 33.1983 20.7115 31.4095C20.5635 30.5864 20.4977 29.5812 20.4285 28.5213L20.3743 27.6947C20.3618 27.5024 20.3521 27.3566 20.3419 27.2311C20.3376 27.179 20.3336 27.1352 20.3299 27.0985C20.2976 27.0709 20.2584 27.038 20.21 26.9986C20.1095 26.9163 19.9915 26.8226 19.8373 26.7005L19.1773 26.1776C18.2147 25.415 17.3179 24.7047 16.7014 24.0498C16.3498 23.6764 15.9567 23.184 15.7085 22.5762Z" fill="#B7A492"/>
<path d="M22.7038 30.6737C22.6966 30.6217 22.6897 30.5688 22.6829 30.5146L22.7608 30.6556C22.7418 30.6616 22.7228 30.6677 22.7038 30.6737Z" fill="#B7A492"/>
</g>
</g>
</g>
</g>
<defs>
<clipPath id="clip0_1_324">
<rect width="50" height="50" fill="white" transform="translate(0 0.919922)"/>
</clipPath>
<clipPath id="clip1_1_324">
<rect width="50" height="50" fill="white" transform="translate(0 0.919922)"/>
</clipPath>
<clipPath id="clip2_1_324">
<rect width="50" height="50" fill="white" transform="translate(0 0.919922)"/>
</clipPath>
</defs>
</svg>
