<svg width="530" height="531" viewBox="0 0 530 531" fill="none" xmlns="http://www.w3.org/2000/svg">
<g clip-path="url(#clip0_1_311)">
<g clip-path="url(#clip1_1_311)">
<g clip-path="url(#clip2_1_311)">
<g opacity="0.4">
<path d="M280.399 524.152C280.399 520.946 282.86 518.23 286.107 517.96C409.723 507.7 506.791 410.631 516.918 287.149C517.195 283.729 520.204 281.179 523.624 281.457C527.053 281.742 529.595 284.766 529.317 288.17C524.21 350.457 496.967 409.198 452.605 453.551C408.25 497.906 349.487 525.181 287.129 530.359C283.708 530.644 280.707 528.094 280.422 524.675C280.407 524.5 280.399 524.327 280.399 524.152Z" fill="#4770AC"/>
<path d="M280.398 8.09916C280.398 7.92814 280.407 7.75633 280.422 7.58135C280.699 4.15782 283.699 1.61073 287.129 1.8918C349.487 6.997 408.25 34.2428 452.613 78.6007C496.967 122.955 524.21 181.729 529.317 244.08C529.602 247.5 527.052 250.509 523.632 250.786C520.204 251.071 517.203 248.53 516.918 245.101C506.792 121.487 409.723 24.4212 286.116 14.293C282.86 14.0231 280.398 11.3041 280.398 8.09916Z" fill="#4770AC"/>
<path d="M0.831665 287.657C0.831665 284.45 3.2861 281.727 6.53227 281.458C9.95263 281.173 12.9613 283.722 13.2462 287.142C23.5073 410.623 120.584 507.7 244.065 517.961C247.486 518.246 250.027 521.279 249.75 524.676C249.465 528.096 246.456 530.645 243.029 530.36C180.741 525.182 122.001 497.906 77.6552 453.552C33.3012 409.199 6.02549 350.467 0.847439 288.18C0.831605 287.998 0.831665 287.823 0.831665 287.657Z" fill="#4770AC"/>
<path d="M0.831665 244.595C0.831665 244.42 0.831605 244.247 0.847439 244.072C6.02549 181.722 33.3012 122.952 77.6552 78.5981C122.009 34.2393 180.748 6.99755 243.037 1.88838C246.465 1.60731 249.465 4.15517 249.75 7.58187C250.035 11.0236 247.478 14.0094 244.057 14.2904C120.577 24.4137 23.5073 121.487 13.2462 245.101C12.9613 248.53 9.95263 251.072 6.53227 250.786C3.2861 250.518 0.831665 247.801 0.831665 244.595Z" fill="#4770AC"/>
<path d="M200.883 40.2001C200.883 38.4407 201.627 36.6926 203.069 35.463L240.794 3.35274C243.408 1.12317 247.336 1.43985 249.568 4.05659C251.793 6.67411 251.477 10.5973 248.863 12.8237L211.136 44.9331C208.524 47.1635 204.597 46.846 202.364 44.2293C201.373 43.0615 200.883 41.6307 200.883 40.2001Z" fill="#4770AC"/>
<path d="M279.884 524.165C279.884 522.399 280.637 520.65 282.086 519.422L319.931 487.309C322.552 485.085 326.471 485.409 328.696 488.03C330.921 490.65 330.596 494.57 327.976 496.794L290.138 528.908C287.518 531.132 283.589 530.808 281.365 528.187C280.375 527.016 279.884 525.59 279.884 524.165Z" fill="#4770AC"/>
</g>
</g>
</g>
</g>
<defs>
<clipPath id="clip0_1_311">
<rect width="530" height="530" fill="white" transform="translate(0 0.919922)"/>
</clipPath>
<clipPath id="clip1_1_311">
<rect width="530" height="530" fill="white" transform="translate(0 0.919922)"/>
</clipPath>
<clipPath id="clip2_1_311">
<rect width="530" height="530" fill="white" transform="translate(0 0.919922)"/>
</clipPath>
</defs>
</svg>
